<mxfile host="app.diagrams.net" agent="Mozilla/5.0 (Macintosh; Intel Mac OS X 10_15_7) AppleWebKit/537.36 (KHTML, like Gecko) Chrome/128.0.0.0 Safari/537.36" version="24.7.7">
  <diagram name="Page-1" id="LrqtVS9umI89FTP9Tj_O">
    <mxGraphModel dx="1291" dy="934" grid="0" gridSize="10" guides="1" tooltips="1" connect="1" arrows="1" fold="1" page="1" pageScale="1" pageWidth="1100" pageHeight="850" math="0" shadow="0">
      <root>
        <mxCell id="0" />
        <mxCell id="1" parent="0" />
        <mxCell id="pyJr4OgLcwCwCUFXCX6H-1" value="SSList" style="rounded=1;whiteSpace=wrap;html=1;points=[[0,0,0,0,0],[0,0.25,0,0,0],[0,0.5,0,0,0],[0,0.75,0,0,0],[0,1,0,0,0],[0.25,0,0,0,0],[0.25,1,0,0,0],[0.5,0,0,0,0],[0.5,1,0,0,0],[0.75,0,0,0,0],[0.75,1,0,0,0],[1,0,0,0,0],[1,0.25,0,0,0],[1,0.5,0,0,0],[1,0.75,0,0,0],[1,1,0,0,0]];" vertex="1" parent="1">
          <mxGeometry x="489" y="20" width="120" height="60" as="geometry" />
        </mxCell>
        <mxCell id="pyJr4OgLcwCwCUFXCX6H-2" value="SSListHeader" style="rounded=1;whiteSpace=wrap;html=1;" vertex="1" parent="1">
          <mxGeometry x="489" y="112" width="120" height="60" as="geometry" />
        </mxCell>
        <mxCell id="pyJr4OgLcwCwCUFXCX6H-3" value="SSListHeaderItem" style="rounded=1;whiteSpace=wrap;html=1;dashed=1;strokeWidth=0.5;" vertex="1" parent="1">
          <mxGeometry x="178" y="224" width="120" height="60" as="geometry" />
        </mxCell>
        <mxCell id="pyJr4OgLcwCwCUFXCX6H-4" value="SSListSortButton" style="rounded=1;whiteSpace=wrap;html=1;" vertex="1" parent="1">
          <mxGeometry x="416" y="314" width="120" height="60" as="geometry" />
        </mxCell>
        <mxCell id="pyJr4OgLcwCwCUFXCX6H-5" value="SSListHeaderItem" style="rounded=1;whiteSpace=wrap;html=1;dashed=1;strokeWidth=0.5;" vertex="1" parent="1">
          <mxGeometry x="950" y="224" width="120" height="60" as="geometry" />
        </mxCell>
        <mxCell id="pyJr4OgLcwCwCUFXCX6H-6" value="SSListHeaderItem" style="rounded=1;whiteSpace=wrap;html=1;dashed=1;strokeWidth=0.5;" vertex="1" parent="1">
          <mxGeometry x="24" y="224" width="120" height="60" as="geometry" />
        </mxCell>
        <mxCell id="pyJr4OgLcwCwCUFXCX6H-7" value="SSListHeaderItem" style="rounded=1;whiteSpace=wrap;html=1;dashed=1;strokeWidth=0.5;" vertex="1" parent="1">
          <mxGeometry x="333" y="224" width="120" height="60" as="geometry" />
        </mxCell>
        <mxCell id="pyJr4OgLcwCwCUFXCX6H-8" value="SSListHeaderItem" style="rounded=1;whiteSpace=wrap;html=1;" vertex="1" parent="1">
          <mxGeometry x="487" y="224" width="120" height="60" as="geometry" />
        </mxCell>
        <mxCell id="pyJr4OgLcwCwCUFXCX6H-9" value="SSListHeaderItem" style="rounded=1;whiteSpace=wrap;html=1;dashed=1;strokeWidth=0.5;" vertex="1" parent="1">
          <mxGeometry x="641" y="224" width="120" height="60" as="geometry" />
        </mxCell>
        <mxCell id="pyJr4OgLcwCwCUFXCX6H-10" value="SSListHeaderItem" style="rounded=1;whiteSpace=wrap;html=1;dashed=1;strokeWidth=0.5;" vertex="1" parent="1">
          <mxGeometry x="796" y="224" width="120" height="60" as="geometry" />
        </mxCell>
        <mxCell id="pyJr4OgLcwCwCUFXCX6H-12" value="SSListFilterButton" style="rounded=1;whiteSpace=wrap;html=1;" vertex="1" parent="1">
          <mxGeometry x="557" y="314" width="120" height="60" as="geometry" />
        </mxCell>
        <mxCell id="pyJr4OgLcwCwCUFXCX6H-14" value="" style="endArrow=classic;html=1;rounded=0;" edge="1" parent="1">
          <mxGeometry width="50" height="50" relative="1" as="geometry">
            <mxPoint x="548.71" y="83" as="sourcePoint" />
            <mxPoint x="548.71" y="105" as="targetPoint" />
          </mxGeometry>
        </mxCell>
        <mxCell id="pyJr4OgLcwCwCUFXCX6H-17" value="" style="endArrow=classic;html=1;rounded=0;" edge="1" parent="1">
          <mxGeometry width="50" height="50" relative="1" as="geometry">
            <mxPoint x="549" y="287" as="sourcePoint" />
            <mxPoint x="619" y="309" as="targetPoint" />
          </mxGeometry>
        </mxCell>
        <mxCell id="pyJr4OgLcwCwCUFXCX6H-18" value="" style="endArrow=classic;html=1;rounded=0;" edge="1" parent="1">
          <mxGeometry width="50" height="50" relative="1" as="geometry">
            <mxPoint x="549" y="287" as="sourcePoint" />
            <mxPoint x="466" y="309" as="targetPoint" />
          </mxGeometry>
        </mxCell>
        <mxCell id="pyJr4OgLcwCwCUFXCX6H-19" value="Button &amp;amp;&lt;div&gt;Handler&lt;/div&gt;&lt;div&gt;sortStatus&lt;/div&gt;&lt;div&gt;buttonClasses&lt;/div&gt;" style="ellipse;whiteSpace=wrap;html=1;aspect=fixed;shadow=0;" vertex="1" parent="1">
          <mxGeometry x="412.25" y="407" width="127.5" height="127.5" as="geometry" />
        </mxCell>
        <mxCell id="pyJr4OgLcwCwCUFXCX6H-20" value="H4" style="ellipse;whiteSpace=wrap;html=1;" vertex="1" parent="1">
          <mxGeometry x="280" y="313" width="104" height="61" as="geometry" />
        </mxCell>
        <mxCell id="pyJr4OgLcwCwCUFXCX6H-21" value="" style="endArrow=classic;html=1;rounded=0;" edge="1" parent="1">
          <mxGeometry width="50" height="50" relative="1" as="geometry">
            <mxPoint x="549" y="287" as="sourcePoint" />
            <mxPoint x="337" y="310" as="targetPoint" />
          </mxGeometry>
        </mxCell>
        <mxCell id="pyJr4OgLcwCwCUFXCX6H-22" value="" style="endArrow=classic;html=1;rounded=0;" edge="1" parent="1">
          <mxGeometry width="50" height="50" relative="1" as="geometry">
            <mxPoint x="475.71" y="379" as="sourcePoint" />
            <mxPoint x="475.71" y="401" as="targetPoint" />
          </mxGeometry>
        </mxCell>
        <mxCell id="pyJr4OgLcwCwCUFXCX6H-23" value="" style="endArrow=classic;html=1;rounded=0;" edge="1" parent="1">
          <mxGeometry width="50" height="50" relative="1" as="geometry">
            <mxPoint x="475.76" y="546" as="sourcePoint" />
            <mxPoint x="476" y="580" as="targetPoint" />
          </mxGeometry>
        </mxCell>
        <mxCell id="pyJr4OgLcwCwCUFXCX6H-25" value="ternary for changing sort icon&lt;div&gt;based on sortStatus&lt;/div&gt;" style="shape=image;html=1;verticalAlign=top;verticalLabelPosition=bottom;labelBackgroundColor=#ffffff;imageAspect=0;aspect=fixed;image=https://cdn4.iconfinder.com/data/icons/evil-icons-user-interface/64/question-128.png;imageBorder=none;" vertex="1" parent="1">
          <mxGeometry x="411.75" y="574" width="128" height="128" as="geometry" />
        </mxCell>
        <mxCell id="pyJr4OgLcwCwCUFXCX6H-26" value="" style="endArrow=classic;html=1;rounded=0;" edge="1" parent="1">
          <mxGeometry relative="1" as="geometry">
            <mxPoint x="550" y="178" as="sourcePoint" />
            <mxPoint x="550" y="219" as="targetPoint" />
          </mxGeometry>
        </mxCell>
        <mxCell id="pyJr4OgLcwCwCUFXCX6H-27" value="Map" style="edgeLabel;resizable=0;html=1;;align=center;verticalAlign=middle;" connectable="0" vertex="1" parent="pyJr4OgLcwCwCUFXCX6H-26">
          <mxGeometry relative="1" as="geometry">
            <mxPoint y="-5" as="offset" />
          </mxGeometry>
        </mxCell>
        <mxCell id="pyJr4OgLcwCwCUFXCX6H-30" value="&lt;b&gt;employeeList&lt;/b&gt; = [ {name: Fred}, {...}, {..., ...etc ]" style="text;html=1;align=center;verticalAlign=middle;whiteSpace=wrap;rounded=0;" vertex="1" parent="1">
          <mxGeometry x="34" y="35" width="325" height="30" as="geometry" />
        </mxCell>
        <mxCell id="pyJr4OgLcwCwCUFXCX6H-31" value="&lt;b&gt;keys&lt;/b&gt; = [ Object.keys(employeesList[0]) ... ]" style="text;html=1;align=center;verticalAlign=middle;whiteSpace=wrap;rounded=0;" vertex="1" parent="1">
          <mxGeometry x="85" y="65" width="299" height="30" as="geometry" />
        </mxCell>
        <mxCell id="pyJr4OgLcwCwCUFXCX6H-32" value="&lt;b&gt;keysStatus&lt;/b&gt; = [ {Name: &#39;asce&#39;} ...etc ]" style="text;html=1;align=center;verticalAlign=middle;whiteSpace=wrap;rounded=0;" vertex="1" parent="1">
          <mxGeometry x="56" y="95" width="248" height="30" as="geometry" />
        </mxCell>
      </root>
    </mxGraphModel>
  </diagram>
</mxfile>
